<svg xmlns="http://www.w3.org/2000/svg" height="48px" viewBox="0 -960 960 960" width="48px" fill="#B0C6FF"><path d="M150.47-497q-39.41 0-66.94-28.07T56-592.23q0-39.08 27.65-66.42Q111.29-686 150.38-686q39.93 0 66.77 27.23Q244-631.54 244-591.86q0 39.68-26.85 67.27Q190.3-497 150.47-497Zm130.42-207.61q-26.89-27.62-26.89-66Q254-809 281-837q27.01-28 66.11-28 39.53 0 67.21 26.85Q442-811.3 442-771.47q0 39.41-28.07 66.94T346.82-677q-39.05 0-65.93-27.61Zm265.11-.04q-28-27.64-28-66.73 0-39.93 27.44-66.77Q572.88-865 612.62-865q39.32 0 66.85 28.1Q707-808.79 707-770.36q0 38.44-27.57 65.9Q651.86-677 612.93-677T546-704.65ZM809.62-497q-39.93 0-66.77-27.82Q716-552.65 716-592.32 716-632 742.85-659q26.85-27 66.68-27 39.41 0 66.94 27.42Q904-631.17 904-592.08 904-553 876.35-525q-27.64 28-66.73 28ZM259-61q-45.15 0-74.08-34.08Q156-129.16 156-175.55q0-44.05 27.5-77.75t57.5-65.6q21-25.1 40.5-49.1t38.5-53q30.43-44.6 68.02-83.8 37.6-39.2 91.57-39.2 53.97 0 92.56 39.47Q610.75-465.07 642-420q18.18 25.21 37.4 50.95Q698.61-343.3 719-319q29.34 32.19 57.17 66.13Q804-218.92 804-175.55q0 46.39-28.92 80.47Q746.15-61 701-61q-57 0-110.5-9.5T480-80q-57 0-110.5 9.5T259-61Z"/></svg>