<svg xmlns="http://www.w3.org/2000/svg" height="48px" viewBox="0 -960 960 960" width="48px" fill="#60A5FA"><path d="M619.5-480.89q17.5-16.88 17.5-41.5 0-24.61-17.39-42.11-17.38-17.5-42-17.5-24.61 0-42.11 17.39-17.5 17.38-17.5 42Q518-498 535.39-481q17.38 17 42 17 24.61 0 42.11-16.89Zm-195 0q17.5-16.88 17.5-41.5 0-24.61-17.39-42.11-17.38-17.5-42-17.5-24.61 0-42.11 17.39-17.5 17.38-17.5 42Q323-498 340.39-481q17.38 17 42 17 24.61 0 42.11-16.89Zm173 163.39Q651-355 674-419H286q22 64 76 101.5T480-280q64 0 117.5-37.5ZM331.37-128.1q-69.64-30.1-121.4-81.87-51.77-51.76-81.87-121.4Q98-401 98-480t30.1-148.63q30.1-69.64 81.87-121.4 51.76-51.77 121.4-81.87Q401-862 480-862t148.63 30.1q69.64 30.1 121.4 81.87 51.77 51.76 81.87 121.4Q862-559 862-480t-30.1 148.63q-30.1 69.64-81.87 121.4-51.76 51.77-121.4 81.87Q559-98 480-98t-148.63-30.1ZM482-613q42 0 58-18t16-32q0-13.6-10.07-22.3Q535.86-694 522-694q-13 0-22.5 8.5T475-677q-8.12 0-14.56-5.44Q454-687.88 454-699q0-11 9-19.5t25-17.5q-22 2-45 4.5T396-721q-2 9-3 16.5t-1 16.5q0 28 26.5 51.5T482-613Z"/></svg>