<svg xmlns="http://www.w3.org/2000/svg" height="48px" viewBox="0 -960 960 960" width="48px" fill="#7da5e7"><path d="M481-59q-87.04 0-163.02-33T183.5-183q-58.5-58-91-134.46Q60-393.92 60-479.93 60-569 93.5-646t91.93-133.74q58.43-56.73 136.43-89.5 78-32.76 166.7-32.76 82.47 0 157.25 27.96 74.78 27.95 131.49 78Q834-746 868-676.8q34 69.2 34 147.8 0 112-62 184.5T665-272h-61q-18 0-29.5 13T563-229q0 18 10.5 27.5T584-170q0 34-32.8 72.5T481-59ZM291.5-469.5Q306-484 306-504t-14.5-34.5Q277-553 257-553t-34 14.5Q209-524 209-504t14 34.5q14 14.5 34 14.5t34.5-14.5Zm121.8-162.7q14.7-14.2 14.7-35t-14.7-34.3q-14.7-13.5-35-13.5t-33.8 13.5Q331-688 331-667.2q0 20.8 13.5 35t33.8 14.2q20.3 0 35-14.2Zm204 0q14.7-14.2 14.7-35t-14.7-34.3q-14.7-13.5-35-13.5t-33.8 13.5Q535-688 535-667.2q0 20.8 13.5 35t33.8 14.2q20.3 0 35-14.2Zm124.2 162.7Q756-484 756-504t-14.5-34.5Q727-553 706.5-553t-34 14.5Q659-524 659-504t13.5 34.5q13.5 14.5 34 14.5t35-14.5Z"/></svg>