<svg xmlns="http://www.w3.org/2000/svg" height="48px" viewBox="0 -960 960 960" width="48px" fill="#B0C6FF"><path d="M606.65-505Q637-505 658-525.65q21-20.64 21-51Q679-607 658.15-628q-20.86-21-51.5-21-29.65 0-50.15 21.35-20.5 21.36-20.5 51Q536-547 556.65-526q20.64 21 50 21Zm-253.3 0q29.65 0 50.15-21.15 20.5-21.14 20.5-50.5 0-29.35-20.65-50.85-20.64-21.5-50-21.5Q323-649 302-628.15q-21 20.86-21 51.5 0 30.65 20.85 51.15 20.86 20.5 51.5 20.5ZM313.18-83.41q-77.81-33.41-137.09-92.68-59.27-59.28-92.68-137.05Q50-390.92 50-480.46 50-570 83.41-647.32q33.41-77.31 92.68-136.59 59.28-59.27 137.05-92.68Q390.92-910 480.46-910q89.54 0 166.86 33.41 77.31 33.41 136.59 92.68 59.27 59.28 92.68 136.82Q910-569.55 910-480.28q0 89.28-33.41 167.1-33.41 77.81-92.68 137.09-59.28 59.27-136.82 92.68Q569.55-50 480.28-50 391-50 313.18-83.41ZM479.56-280q58.72 0 109.08-25t77.19-74q6.17-13-.89-24-7.07-11-21.2-11H316.13q-14.13 0-21.63 10.5Q287-393 294-380q27 49 76.5 74.5T479.56-280Z"/></svg>