<svg xmlns="http://www.w3.org/2000/svg" height="48px" viewBox="0 -960 960 960" width="48px" fill="#E9C400"><path d="M378.12-860q-17.87 0-28.99-11.68Q338-883.35 338-901.18q0-17.82 11.13-28.32 11.12-10.5 28.99-10.5h204.76q16.87 0 28 10.68Q622-918.65 622-900.82q0 17.82-11.12 29.32-11.13 11.5-28 11.5H378.12ZM508-407.48q12-11.47 12-28.52v-150q0-16.05-11.96-27.53-11.97-11.47-28-11.47-16.04 0-27.54 11.47Q441-602.05 441-586v150q0 17.05 11.46 28.52Q463.93-396 479.96-396 496-396 508-407.48ZM330.6-70.95q-69.94-29.95-121.77-81.5T127.5-273.86Q98-343.71 98-422.86 98-502 127.5-572q29.5-70 81.37-121.55 51.87-51.55 121.85-82Q400.71-806 480-806q70 0 130 22t108 63l31-30q11-12 28.5-12t28.5 12q11 12 11 29.5T806-693l-30 30q38 43 62.5 100.5T863-423q0 79.36-29.9 149.4t-81.88 121.46q-51.97 51.41-122.09 81.27Q559-41 479.77-41q-79.24 0-149.17-29.95Z"/></svg>